<svg width="18" height="18" viewBox="0 0 18 18" fill="none" xmlns="http://www.w3.org/2000/svg">
<g id="Group">
<path id="Vector" d="M9.00712 1.73899C11.3494 1.73899 11.6259 1.74724 12.5505 1.79058C13.4048 1.82979 13.8692 1.97219 14.1787 2.09188C14.5873 2.25078 14.8804 2.44064 15.1879 2.74813C15.4954 3.05562 15.6852 3.3466 15.8441 3.75728C15.9638 4.06683 16.1062 4.53116 16.1454 5.38553C16.1867 6.31006 16.197 6.58866 16.197 8.92888C16.197 11.2691 16.1888 11.5477 16.1454 12.4722C16.1062 13.3266 15.9638 13.7909 15.8441 14.1005C15.6852 14.5091 15.4954 14.8021 15.1879 15.1096C14.8804 15.4171 14.5894 15.607 14.1787 15.7659C13.8692 15.8856 13.4048 16.028 12.5505 16.0672C11.6259 16.1085 11.3494 16.1188 9.00712 16.1188C6.66483 16.1188 6.3883 16.1105 5.46376 16.0672C4.6094 16.028 4.14506 15.8856 3.83551 15.7659C3.4269 15.607 3.13386 15.4171 2.82637 15.1096C2.51888 14.8021 2.32902 14.5112 2.17012 14.1005C2.05042 13.7909 1.90802 13.3266 1.86881 12.4722C1.82754 11.5477 1.81722 11.2691 1.81722 8.92888C1.81722 6.58866 1.82548 6.31006 1.86881 5.38553C1.90802 4.53116 2.05042 4.06683 2.17012 3.75728C2.32902 3.34867 2.51888 3.05562 2.82637 2.74813C3.13386 2.44064 3.42484 2.25078 3.83551 2.09188C4.14506 1.97219 4.6094 1.82979 5.46376 1.79058C6.3883 1.74931 6.66689 1.73899 9.00712 1.73899ZM9.00712 0.158203C6.62562 0.158203 6.32639 0.168522 5.39153 0.211859C4.45875 0.255197 3.82106 0.401718 3.2618 0.62047C2.68603 0.845412 2.19694 1.14465 1.70785 1.63168C1.22082 2.11871 0.919518 2.6078 0.69664 3.18564C0.479952 3.74283 0.331364 4.38051 0.288027 5.31536C0.244689 6.25022 0.234375 6.54945 0.234375 8.93095C0.234375 11.3124 0.244689 11.6117 0.288027 12.5465C0.331364 13.4793 0.477888 14.117 0.69664 14.6763C0.921582 15.252 1.22082 15.7411 1.70785 16.2302C2.19488 16.7172 2.68397 17.0185 3.2618 17.2414C3.819 17.4581 4.45668 17.6067 5.39153 17.65C6.32639 17.6934 6.62562 17.7037 9.00712 17.7037C11.3886 17.7037 11.6879 17.6934 12.6227 17.65C13.5555 17.6067 14.1932 17.4602 14.7524 17.2414C15.3282 17.0165 15.8173 16.7172 16.3064 16.2302C16.7934 15.7432 17.0947 15.2541 17.3176 14.6763C17.5343 14.1191 17.6829 13.4814 17.7262 12.5465C17.7695 11.6117 17.7799 11.3124 17.7799 8.93095C17.7799 6.54945 17.7695 6.25022 17.7262 5.31536C17.6829 4.38258 17.5364 3.7449 17.3176 3.18564C17.0927 2.60987 16.7934 2.12077 16.3064 1.63168C15.8194 1.14465 15.3303 0.843348 14.7524 0.62047C14.1952 0.403782 13.5576 0.255197 12.6227 0.211859C11.6879 0.168522 11.3886 0.158203 9.00712 0.158203Z" fill="#F7F0D4"/>
<path id="Vector_2" d="M9.00297 4.42188C6.51622 4.42188 4.5 6.4381 4.5 8.92485C4.5 11.4116 6.51622 13.4278 9.00297 13.4278C11.4897 13.4278 13.5059 11.4116 13.5059 8.92485C13.5059 6.4381 11.4897 4.42188 9.00297 4.42188ZM9.00297 11.8491C7.38916 11.8491 6.07872 10.5407 6.07872 8.92485C6.07872 7.30898 7.3871 6.0006 9.00297 6.0006C10.6188 6.0006 11.9272 7.30898 11.9272 8.92485C11.9272 10.5407 10.6188 11.8491 9.00297 11.8491Z" fill="#F7F0D4"/>
<path id="Vector_3" d="M13.6931 5.30028C14.2744 5.30028 14.7456 4.82906 14.7456 4.24779C14.7456 3.66653 14.2744 3.19531 13.6931 3.19531C13.1118 3.19531 12.6406 3.66653 12.6406 4.24779C12.6406 4.82906 13.1118 5.30028 13.6931 5.30028Z" fill="#F7F0D4"/>
</g>
</svg>
