<svg width="241" height="139" viewBox="0 0 241 139" fill="none" xmlns="http://www.w3.org/2000/svg">
<g id="Group 2093">
<g id="Group 1935">
<path id="Vector" d="M51.2672 61.7772L55.6729 62.3166L55.6729 63.5661L28.805 63.5661L28.805 62.3166L33.2107 61.7772C37.6165 61.2378 38.4417 60.2546 38.4417 53.9868L38.4417 32.2268L17.3431 32.2268L17.3431 53.9868C17.3431 60.2546 18.0704 61.2378 22.4762 61.7772L26.8819 62.3166L26.8819 63.5661L-3.98963e-06 63.5661L-3.91121e-06 62.3166L4.40572 61.7772C8.81144 61.2378 9.63663 60.2546 9.63663 53.9868L9.63664 10.4669C9.63664 4.19905 8.72053 3.21586 4.40572 2.67647L-1.34559e-07 2.1439L-5.61377e-08 0.894431L26.8679 0.894433L26.8679 2.15073L22.4622 2.69012C18.2453 3.22268 17.3292 4.20588 17.3292 10.4806L17.3292 30.4448L38.4277 30.4448L38.4277 10.4669C38.4277 4.19905 37.6025 3.21586 33.1968 2.67647L28.791 2.13708L28.791 0.887605L55.6589 0.887607L55.6589 2.14391L51.2532 2.6833C46.8545 3.21586 46.1202 4.19905 46.1202 10.4737L46.1202 53.9936C46.1202 60.2546 46.8475 61.2446 51.2532 61.784L51.2672 61.7772ZM86.6878 53.9117C86.6878 60.4526 85.0304 64.6585 80.9953 64.6585C76.9602 64.6585 74.6735 61.074 74.5756 50.3271L74.121 50.3271C73.2958 60.8077 69.5404 64.6585 63.7571 64.6585C58.5331 64.6585 54.4981 60.8077 54.4981 54.0892C54.4981 49.1664 57.1555 44.9537 63.2046 41.376L73.1979 35.4632L73.1979 33.1349C73.1979 26.594 70.4496 23.3713 66.1417 23.3713C63.0158 23.3713 59.8059 24.9826 58.1555 27.7615C61.3654 28.5672 63.4773 31.1617 63.4773 34.1181C63.4773 37.0745 61.3654 39.0409 59.2604 39.0409C56.8687 39.0409 55.1344 36.7946 55.1344 33.2169C55.1344 26.949 59.9947 21.3093 68.7013 21.3093C75.5826 21.3093 80.254 25.7815 80.254 35.9002L80.254 54.97C80.254 60.3502 80.9953 61.8728 82.366 61.8728C83.8346 61.8728 84.5688 60.0771 84.7576 55.0656L85.2122 44.4075L86.6808 44.4075L86.6808 44.4211L86.6878 53.9117ZM73.1979 36.8902L66.6872 41.6354C62.6521 44.5031 61.5542 48.7977 61.5542 54.1711C61.5542 59.9883 63.841 61.8728 66.2257 61.8728C69.7992 61.8728 73.1979 55.0656 73.1979 45.8413L73.1979 36.8902ZM138.549 21.6644L138.535 21.6644C136.416 21.6712 134.864 23.542 134.864 25.6791C134.864 28.6355 136.801 30.9774 141.843 32.4931C141.843 44.3051 132.109 61.9479 123.22 61.9479C120.29 61.9479 118.178 59.9132 118.178 54.533C118.178 46.8177 122.661 35.1081 132.577 22.9138L131.486 22.0194C130.158 23.1118 128.724 24.0404 127.22 24.7164C127.22 24.7164 127.178 24.7368 127.164 24.7437C126.5 25.0373 125.829 25.2899 125.136 25.4742C120.885 26.2799 115.905 23.303 113.591 22.0809C113.416 21.9784 113.234 21.8897 113.059 21.8077C112.996 21.7804 112.94 21.7463 112.884 21.7258C112.849 21.7122 112.814 21.6917 112.779 21.6848C112.71 21.6575 112.647 21.6302 112.591 21.6097C112.493 21.5824 112.388 21.5483 112.304 21.5278C111.786 21.3776 111.248 21.2888 110.667 21.2888C104.604 21.2888 100.751 29.0793 99.7371 38.2284L99.2825 38.2284L100.478 22.3608L86.2612 22.3608L86.2612 23.6239L88.6599 23.897C92.6879 24.3408 93.4992 25.2421 93.4992 30.6087L93.4992 55.2089C93.4992 60.5824 92.681 61.5724 88.6599 62.023L86.2612 62.2961L86.2612 63.5388L108.632 63.5388L108.556 62.2961L105.066 61.8523C101.401 61.4085 100.66 60.5824 100.66 55.2089L100.66 42.5913C100.66 34.7668 103.234 27.6318 106.374 24.9007C107.283 26.0819 110.15 29.4684 114.521 30.6428C115.185 30.875 115.919 31.032 116.808 31.1003C117.038 31.1276 117.29 31.1276 117.57 31.1276C119.052 31.1276 120.514 30.8135 122.213 29.96C124.283 29.0383 126.053 27.6796 127.332 26.512L127.661 26.7442C117.647 38.5561 111.612 48.4836 111.507 55.4752C111.409 61.2173 115.814 64.6039 121.241 64.6039C133.626 64.6039 143.892 45.5477 143.892 32.4658C143.892 26.1229 141.675 21.6439 138.563 21.6439L138.549 21.6644ZM171.802 48.7021L173.089 48.9752C171.25 58.7389 166.76 64.6449 160.061 64.6449C153.361 64.6449 144.836 56.95 144.836 42.9805C144.836 29.011 152.263 21.2206 159.417 21.2206C167.487 21.2206 172.991 28.3828 172.991 41.7242L172.627 42.0861L152.536 42.0861L152.536 42.9805C152.536 56.95 155.655 62.856 161.068 62.856C165.753 62.8492 169.879 58.2883 171.802 48.7021ZM152.536 40.2016L165.466 40.2016C165.375 27.6591 164.005 23.0094 159.417 23.0094C154.83 23.0094 152.816 28.2053 152.536 40.2016ZM240.993 40.6523L240.993 48.6202C240.993 59.8177 237.783 64.6449 231.272 64.6449C227.146 64.6449 224.034 62.0367 222.79 56.2331C221.531 62.0435 218.531 64.6449 213.754 64.6449C208.342 64.6449 204.677 60.1659 204.677 49.8765L204.677 24.1701L196.076 24.1701L196.089 24.2111L196.236 24.8051L198.922 35.3539L198.922 35.3676L199.46 37.4705L199.034 37.6617L198.348 37.969L195.187 31.585L195.096 31.3939L194.243 29.6528L193.943 29.052C191.754 24.9895 189.446 23.0094 185.935 23.0094C182.425 23.0094 180.068 25.4264 180.068 29.366C180.068 33.3056 182.355 36.0777 187.033 37.9621L191.894 39.9285C198.586 42.6186 201.887 47.1864 201.887 52.7373C201.887 59.8996 196.572 64.3786 190.425 64.3786C185.565 64.3786 181.984 61.5109 179.97 57.2095L177.949 64.1123L176.669 64.1123L175.844 45.657L177.033 45.3907L178.592 50.136C181.348 58.377 184.46 62.7604 190.425 62.7604C194.824 62.7604 197.761 59.804 197.761 55.8644C197.761 51.9248 195.376 49.2415 190.789 47.2751L186.208 45.3019C179.145 42.2636 175.935 37.7846 175.935 32.4112C175.935 25.4264 179.697 21.3981 185.935 21.3981C189.145 21.3981 191.998 23.0572 194.033 26.0956L194.243 22.3813L201.747 22.3813C205.328 22.3813 206.887 20.3193 207.803 15.219L210.558 1.32154e-05L211.838 1.32957e-05L211.838 22.3813L219.265 22.3813C222.846 22.3813 224.405 20.3193 225.321 15.219L228.069 1.43144e-05L229.356 1.43952e-05L229.356 22.3813L239.902 22.3813L239.902 24.1701L229.356 24.1701L229.356 52.3823C229.356 59.2783 231.007 61.2447 234.035 61.2447C236.881 61.2447 239.077 58.377 239.356 51.0372L239.72 40.6523L241 40.6523L240.993 40.6523ZM222.195 24.1701L211.824 24.1701L211.824 52.3823C211.824 59.2783 213.475 61.2447 216.503 61.2447C219.349 61.2447 221.545 58.377 221.824 51.0372L222.195 40.6523L222.195 24.1701Z" fill="#F7F0D4"/>
</g>
<g id="Group 2030">
<g id="Studio">
<path id="Vector_2" d="M180.328 116.816C180.328 109.483 182.385 103.671 186.588 99.468C189.449 96.6065 192.758 95.1758 195.709 95.1758C198.66 95.1758 201.968 96.6065 204.83 99.468C209.032 103.671 211.089 109.483 211.089 116.816C211.089 124.148 209.032 129.961 204.83 134.163C201.968 137.025 198.66 138.456 195.709 138.456C192.758 138.456 189.449 137.025 186.588 134.163C182.385 129.961 180.328 124.148 180.328 116.816ZM187.84 116.816C187.84 127.189 189.181 132.643 191.685 135.147C192.758 136.22 194.099 136.667 195.709 136.667C197.318 136.667 198.66 136.22 199.733 135.147C202.236 132.643 203.578 127.189 203.578 116.816C203.578 106.443 202.236 100.988 199.733 98.4844C198.66 97.4113 197.318 96.9642 195.709 96.9642C194.099 96.9642 192.758 97.4113 191.685 98.4844C189.181 100.988 187.84 106.443 187.84 116.816Z" fill="#F7F0D4"/>
<path id="Vector_3" d="M170.996 84.2671C168.135 84.2671 166.167 81.8527 166.167 78.6335C166.167 75.4144 168.135 73 170.996 73C173.858 73 175.825 75.4144 175.825 78.6335C175.825 81.8527 173.858 84.2671 170.996 84.2671ZM174.662 129.067C174.662 134.432 175.467 135.506 179.312 135.863L182.084 136.131V137.383H160.266V136.131L162.948 135.863C166.883 135.506 167.688 134.432 167.688 129.067V104.476C167.688 99.111 166.883 98.1274 162.948 97.7697L160.266 97.5015V96.2496H174.662V129.067Z" fill="#F7F0D4"/>
<path id="Vector_4" d="M160.242 135.863L162.388 136.131V137.383H148.796L149.959 122.987H149.512C147.992 133.717 143.521 138.456 138.245 138.456C131.717 138.456 125.547 129.961 125.547 116.816C125.547 103.672 131.806 95.1765 138.871 95.1765C144.415 95.1765 148.796 101.168 149.512 110.915H149.959L148.618 81.2268C148.349 75.8615 147.813 74.8778 143.521 74.5202L140.301 74.2519V73H155.592V129.067C155.592 134.432 156.308 135.327 160.242 135.863ZM140.301 136.042C144.951 136.042 148.618 128.62 148.618 117.532V115.028C148.618 104.387 144.772 97.5909 140.48 97.5909C135.562 97.5909 133.058 104.029 133.058 116.816C133.058 129.604 135.473 136.042 140.301 136.042Z" fill="#F7F0D4"/>
<path id="Vector_5" d="M124.972 135.864L127.297 136.132V137.384H113.436L114.599 123.881H114.152C113.257 133.896 109.681 138.457 103.511 138.457C96.9828 138.457 92.9588 133.807 92.9588 123.881V104.566C92.9588 99.2009 92.154 98.2173 88.3089 97.7702L85.8945 97.5019V96.25H99.9337V127.1C99.9337 133.002 101.722 136.042 105.746 136.042C109.77 136.042 113.257 129.872 113.257 119.857V104.566C113.257 99.2009 112.363 98.3067 108.786 97.7702L107.087 97.5019V96.25H120.232V129.157C120.232 134.522 121.037 135.417 124.972 135.864Z" fill="#F7F0D4"/>
<path id="Vector_6" d="M86.107 114.492H87.3589V122.45C87.3589 133.628 84.2292 138.457 77.8803 138.457C72.6044 138.457 69.0275 133.986 69.0275 123.702V98.0383H60.8008V96.2499H66.1661C69.6535 96.2499 71.1737 94.1932 72.0679 89.0962L74.7505 73.8945H76.0024V96.2499H86.2859V98.0383H76.0024V126.206C76.0024 133.091 77.612 135.059 80.5629 135.059C83.335 135.059 85.4811 132.197 85.7493 124.865L86.107 114.492Z" fill="#F7F0D4"/>
<path id="Vector_7" d="M49.4939 102.241C59.0619 107.428 64.0695 113.776 64.0695 121.824C64.0695 131.84 57.6312 138.278 49.7621 138.278C43.7709 138.278 39.2104 134.522 35.9912 128.084L32.4144 137.92H31.1625L30 110.557L31.0731 110.289L34.4711 120.125C38.2268 131.035 42.8767 136.489 49.7621 136.489C54.8591 136.489 58.9725 132.197 58.9725 125.759C58.9725 119.231 55.6639 115.028 47.1689 110.289L44.7545 108.948C35.723 103.94 30.3577 97.3229 30.3577 89.275C30.3577 79.081 35.9912 73.8945 43.5026 73.8945C49.4044 73.8945 52.713 77.382 55.3957 83.1049L58.6148 74.2522H59.8667L61.1186 98.9325L59.9562 99.2008L56.3793 89.901C52.6236 80.0646 49.6727 75.683 43.592 75.683C39.0316 75.683 35.4547 79.2598 35.4547 85.6982C35.4547 92.0471 39.5681 96.8758 47.1689 100.989L49.4939 102.241Z" fill="#F7F0D4"/>
</g>
<path id="Rectangle 7101" d="M60.5664 96.4805H92.7282V98.0687H60.5664V96.4805Z" fill="#F7F0D4"/>
</g>
</g>
</svg>
