<svg width="457" height="138" viewBox="0 0 457 138" fill="none" xmlns="http://www.w3.org/2000/svg">
<path fill-rule="evenodd" clip-rule="evenodd" d="M44.3327 83.3296L42.3331 78.7117L40.3335 83.3296H44.3327ZM41.5987 83.3317H43.0695V107.973C48.7216 108.16 54.1032 110.486 58.115 114.498C58.1551 114.538 58.1951 114.579 58.2348 114.619L76.787 95.6428L77.8877 96.7189L59.278 115.754C62.3819 119.374 64.2457 123.897 64.5931 128.654C64.6138 128.938 64.6292 129.223 64.639 129.508H86.2021V131.047H0V129.508H20.0254C20.0353 129.223 20.0506 128.938 20.0714 128.654C20.4602 123.329 22.7487 118.299 26.5495 114.498L26.5832 114.465L9.23399 96.7189L10.3347 95.6428L27.7111 113.416C31.572 110.069 36.4743 108.141 41.5987 107.973V83.3317ZM62.9619 128.654C62.5763 123.761 60.4604 119.144 56.9648 115.648C53.084 111.768 47.8205 109.587 42.3322 109.587C36.844 109.587 31.5804 111.768 27.6996 115.648C24.204 119.144 22.0882 123.761 21.7026 128.654L42.3322 128.654H62.9619ZM64.6511 135.62H21.55V137.159H64.6511V135.62Z" fill="#FFBB02"/>
<path fill-rule="evenodd" clip-rule="evenodd" d="M367.943 103.299L367.943 78.7065H366.404V103.299H365.173L367.172 107.917L369.172 103.299H367.943ZM387.799 128.651C387.413 123.758 385.298 119.14 381.802 115.645C377.921 111.764 372.658 109.584 367.169 109.584C361.681 109.584 356.418 111.764 352.537 115.645C349.041 119.14 346.925 123.758 346.54 128.651L367.169 128.651H387.799ZM389.43 128.651C389.083 123.895 387.221 119.375 384.119 115.755L402.731 96.7182L401.63 95.6421L383.077 114.62C383.035 114.578 382.994 114.536 382.952 114.495C378.766 110.309 373.089 107.957 367.169 107.957C361.783 107.957 356.597 109.904 352.553 113.408L335.184 95.6421L334.083 96.7182L351.425 114.456L351.387 114.495C347.586 118.295 345.297 123.326 344.909 128.651C344.888 128.935 344.872 129.221 344.862 129.507H324.843V131.046H411.045V129.507H389.476C389.466 129.221 389.451 128.935 389.43 128.651ZM389.494 135.616H346.393V137.156H389.494V135.616Z" fill="#FFBB02"/>
<path d="M225.208 38.129H235.244V36.5897H225.208C225.146 34.5578 224.746 32.6182 224.084 30.8018L243.341 22.9359L242.756 21.5197L223.515 29.3703C222.653 27.5077 221.498 25.799 220.143 24.3059L227.224 17.225L226.131 16.1321L219.035 23.2284C217.542 21.843 215.833 20.6885 213.955 19.8419L221.791 0.569549L220.374 0L212.539 19.2723C210.723 18.6104 208.783 18.2102 206.767 18.1486V8.11223H205.227V18.1486C203.211 18.2102 201.271 18.6104 199.455 19.2723L191.62 0L190.204 0.569549L198.039 19.8419C196.161 20.6885 194.452 21.843 192.959 23.2284L185.863 16.1321L184.77 17.225L191.851 24.3059C190.496 25.799 189.342 27.5077 188.48 29.3703L169.238 21.5197L168.653 22.9359L187.91 30.8018C187.248 32.6182 186.848 34.5578 186.786 36.5897H176.75V38.129H186.786C186.848 40.1455 187.248 42.0851 187.91 43.9015L168.653 51.7674L169.238 53.199L188.495 45.3331C189.342 47.1956 190.496 48.9043 191.866 50.3974L184.77 57.4937L185.863 58.5866L192.959 51.4903C194.452 52.8757 196.161 54.0148 198.039 54.8769L190.204 74.1338L191.62 74.7187L199.455 55.4464C201.271 56.1083 203.211 56.5085 205.227 56.5701V66.6065H206.767V56.5701C208.783 56.5085 210.723 56.1083 212.539 55.4464L220.374 74.7187L221.791 74.1338L213.955 54.8769C215.833 54.0148 217.542 52.8757 219.035 51.4903L226.131 58.5866L227.224 57.4937L220.128 50.3974C221.498 48.9043 222.653 47.1956 223.499 45.3331L242.756 53.199L243.341 51.7674L224.084 43.9015C224.746 42.0851 225.146 40.1455 225.208 38.129ZM222.068 44.7481C221.313 46.426 220.282 47.9653 219.051 49.3199C218.696 49.6893 218.327 50.0588 217.958 50.4128C216.603 51.6443 215.064 52.6756 213.37 53.4453C212.909 53.6608 212.431 53.8609 211.954 54.0302C210.323 54.6152 208.583 54.9692 206.767 55.0462C206.505 55.0616 206.259 55.0616 205.997 55.0616C205.735 55.0616 205.489 55.0616 205.227 55.0462C203.411 54.9692 201.672 54.6152 200.04 54.0302C199.563 53.8609 199.085 53.6608 198.624 53.4453C196.93 52.6756 195.391 51.6443 194.037 50.4128C193.667 50.0588 193.298 49.6893 192.944 49.3199C191.712 47.9653 190.681 46.426 189.927 44.7481C189.696 44.2863 189.511 43.8091 189.342 43.3319C188.741 41.7002 188.387 39.9454 188.31 38.129C188.295 37.8673 188.295 37.621 188.295 37.3594C188.295 37.0977 188.295 36.8514 188.31 36.5897C188.387 34.7733 188.741 33.0185 189.342 31.3868C189.511 30.9096 189.696 30.4324 189.927 29.9706C190.681 28.2927 191.712 26.7534 192.944 25.3988C193.298 25.0294 193.667 24.6599 194.037 24.3059C195.391 23.0744 196.93 22.0431 198.624 21.2734C199.085 21.0579 199.563 20.8578 200.04 20.6885C201.672 20.1036 203.411 19.7495 205.227 19.6725C205.489 19.6572 205.735 19.6572 205.997 19.6572C206.259 19.6572 206.505 19.6572 206.767 19.6725C208.583 19.7495 210.323 20.1036 211.954 20.6885C212.431 20.8578 212.909 21.0579 213.37 21.2734C215.064 22.0431 216.603 23.0744 217.958 24.3059C218.327 24.6599 218.696 25.0294 219.051 25.3988C220.282 26.7534 221.313 28.2927 222.068 29.9706C222.298 30.4324 222.483 30.9096 222.653 31.3868C223.253 33.0185 223.607 34.7733 223.684 36.5897C223.699 36.8514 223.699 37.0977 223.699 37.3594C223.699 37.621 223.699 37.8673 223.684 38.129C223.607 39.9454 223.253 41.7002 222.653 43.3319C222.483 43.8091 222.298 44.2863 222.068 44.7481Z" fill="#FFBB02"/>
<path d="M456.982 65.1277C456.889 68.1602 455.673 70.9156 453.764 72.9937C451.517 75.472 448.269 77.0113 444.682 77.0113C437.894 77.0113 432.368 71.4851 432.368 64.6967C432.368 57.9083 437.894 52.3821 444.682 52.3821C447.299 52.3821 449.731 53.198 451.717 54.5988C454.088 56.2458 455.858 58.7242 456.612 61.5873C455.981 58.5548 454.642 55.7687 452.764 53.4443C449.223 49.0418 443.82 46.2249 437.755 46.2249C427.134 46.2249 418.514 54.8605 418.514 65.4664C418.514 76.0723 427.134 84.7079 437.755 84.7079C445.375 84.7079 451.979 80.2593 455.104 73.8095C456.32 71.285 456.997 68.4527 456.997 65.4664C456.997 65.3586 456.997 65.2355 456.982 65.1277ZM437.755 83.1686C427.996 83.1686 420.053 75.2257 420.053 65.4664C420.053 55.7071 427.996 47.7642 437.755 47.7642C441.758 47.7642 445.467 49.1034 448.438 51.3662C447.238 51.0275 445.991 50.8428 444.682 50.8428C437.032 50.8428 430.828 57.0617 430.828 64.6967C430.828 72.3318 437.032 78.5506 444.682 78.5506C447.068 78.5506 449.3 77.9503 451.271 76.8882C448.023 80.7211 443.158 83.1686 437.755 83.1686Z" fill="#FFBB02"/>
<path d="M135.889 62.2241C135.839 62.0242 135.764 61.8368 135.676 61.6369C135.589 61.4371 135.514 61.2372 135.414 61.0623C134.752 59.5506 133.865 58.2139 132.815 57.0395L144.934 45.2836L144.059 44.3966L131.953 56.14C130.741 55.0031 129.355 54.0662 127.881 53.3541C127.493 53.1917 127.106 53.0168 126.719 52.8793C125.17 52.2922 123.533 51.9424 121.871 51.8674L121.934 34.9768H120.697L120.635 51.8674C119.06 51.9174 117.486 52.2047 115.95 52.7669C115.75 52.8169 115.562 52.8918 115.363 52.9793C115.163 53.0667 114.963 53.1417 114.788 53.2416C113.289 53.9038 111.952 54.7908 110.778 55.8402L99.0466 43.6845L98.1471 44.5465L109.878 56.6897C108.716 57.9015 107.779 59.2883 107.08 60.7749C106.892 61.1497 106.742 61.537 106.567 61.9243C106.005 63.4609 105.643 65.0975 105.568 66.7591L88.7024 66.6716V67.9209L105.568 68.0084C105.618 69.5825 105.905 71.1566 106.48 72.7058C106.53 72.9057 106.605 73.0931 106.692 73.293C106.78 73.4928 106.855 73.6927 106.955 73.8676C107.617 75.3668 108.504 76.7036 109.553 77.8779L97.435 89.6339L98.3095 90.5333L110.428 78.7774C111.627 79.9268 113.014 80.8637 114.501 81.5633C114.888 81.7507 115.263 81.9007 115.65 82.0506C117.199 82.6377 118.823 82.9876 120.497 83.0625L120.435 99.9406H121.684L121.746 83.0625C123.321 83.0125 124.895 82.7252 126.431 82.163C126.631 82.113 126.819 82.0381 127.019 81.9506C127.218 81.8632 127.418 81.7882 127.593 81.6883C129.092 81.0261 130.429 80.1391 131.603 79.0897L143.334 91.233L144.221 90.3584L132.49 78.2277C133.64 77.0159 134.589 75.6292 135.289 74.1425C135.476 73.7552 135.626 73.3804 135.776 72.9931C136.351 71.4565 136.713 69.8199 136.776 68.1583L153.654 68.2458V66.9965L136.776 66.909C136.726 65.3349 136.438 63.7608 135.876 62.2241H135.889ZM135.526 68.1583C135.464 69.645 135.152 71.1192 134.639 72.5184C134.489 72.9057 134.314 73.293 134.152 73.6677C133.502 75.0045 132.653 76.2538 131.616 77.3407C131.329 77.6405 131.029 77.9404 130.729 78.2152C129.68 79.1522 128.48 79.9393 127.131 80.5514C126.944 80.6389 126.756 80.7138 126.556 80.8013C126.356 80.8887 126.169 80.9512 125.969 81.0261C124.582 81.5134 123.158 81.7757 121.759 81.8382C121.347 81.8507 120.934 81.8382 120.51 81.8382C118.998 81.7757 117.536 81.4634 116.137 80.9387C115.75 80.7888 115.363 80.6139 114.988 80.4515C113.651 79.8018 112.402 78.9523 111.327 77.9279C111.015 77.653 110.728 77.3407 110.453 77.0409C109.503 75.9914 108.704 74.7796 108.104 73.4304C108.017 73.243 107.942 73.0556 107.854 72.8557C107.767 72.6558 107.704 72.4684 107.629 72.2685C107.142 70.8818 106.867 69.4451 106.83 68.0334C106.817 67.6211 106.805 67.2088 106.83 66.7841C106.892 65.2974 107.205 63.8232 107.717 62.424C107.867 62.0367 108.042 61.6494 108.204 61.2747C108.854 59.9379 109.703 58.6886 110.74 57.6017C111.027 57.3019 111.327 57.002 111.627 56.7272C112.677 55.7902 113.876 55.0031 115.225 54.391C115.413 54.3035 115.6 54.2286 115.8 54.1411C116 54.0537 116.187 53.9912 116.387 53.9163C117.774 53.429 119.198 53.1667 120.597 53.1042C121.009 53.0917 121.422 53.1042 121.846 53.1042C123.358 53.1667 124.82 53.479 126.219 54.0037C126.606 54.1536 126.994 54.3285 127.368 54.4909C128.705 55.1406 129.954 55.9901 131.029 57.0145C131.341 57.2894 131.628 57.6017 131.903 57.9015C132.853 58.9509 133.652 60.1628 134.252 61.512C134.339 61.6994 134.414 61.8868 134.502 62.0867C134.589 62.2866 134.652 62.474 134.727 62.6739C135.214 64.0606 135.489 65.4973 135.526 66.909C135.539 67.3213 135.551 67.7336 135.526 68.1583Z" fill="#FFBB02"/>
<path d="M305.793 62.2241C305.743 62.0242 305.668 61.8368 305.581 61.6369C305.493 61.4371 305.418 61.2372 305.318 61.0623C304.656 59.5506 303.769 58.2139 302.72 57.0395L314.838 45.2836L313.963 44.3966L301.858 56.14C300.646 55.0031 299.259 54.0662 297.785 53.3541C297.398 53.1917 297.01 53.0168 296.623 52.8793C295.074 52.2922 293.437 51.9424 291.776 51.8674L291.838 34.9768H290.601L290.539 51.8674C288.965 51.9174 287.391 52.2047 285.854 52.7669C285.654 52.8169 285.467 52.8918 285.267 52.9793C285.067 53.0667 284.867 53.1417 284.692 53.2416C283.193 53.9038 281.856 54.7908 280.682 55.8402L268.951 43.6845L268.051 44.5465L279.782 56.6897C278.621 57.9015 277.684 59.2883 276.984 60.7749C276.797 61.1497 276.647 61.537 276.472 61.9243C275.91 63.4609 275.547 65.0975 275.472 66.7591L258.607 66.6716V67.9209L275.472 68.0084C275.522 69.5825 275.81 71.1566 276.384 72.7058C276.434 72.9057 276.509 73.0931 276.597 73.293C276.684 73.4928 276.759 73.6927 276.859 73.8676C277.521 75.3668 278.408 76.7036 279.458 77.8779L267.339 89.6339L268.214 90.5333L280.332 78.7774C281.531 79.9268 282.918 80.8637 284.405 81.5633C284.792 81.7507 285.167 81.9007 285.554 82.0506C287.103 82.6377 288.727 82.9876 290.401 83.0625L290.339 99.9406H291.588L291.651 83.0625C293.225 83.0125 294.799 82.7252 296.336 82.163C296.536 82.113 296.723 82.0381 296.923 81.9506C297.123 81.8632 297.323 81.7882 297.498 81.6883C298.997 81.0261 300.333 80.1391 301.508 79.0897L313.239 91.233L314.126 90.3584L302.395 78.2277C303.544 77.0159 304.494 75.6292 305.193 74.1425C305.381 73.7552 305.531 73.3804 305.68 72.9931C306.255 71.4565 306.617 69.8199 306.68 68.1583L323.558 68.2458V66.9965L306.68 66.909C306.63 65.3349 306.343 63.7608 305.78 62.2241H305.793ZM305.431 68.1583C305.368 69.645 305.056 71.1192 304.544 72.5184C304.394 72.9057 304.219 73.293 304.056 73.6677C303.407 75.0045 302.557 76.2538 301.52 77.3407C301.233 77.6405 300.933 77.9404 300.633 78.2152C299.584 79.1522 298.385 79.9393 297.035 80.5514C296.848 80.6389 296.66 80.7138 296.461 80.8013C296.261 80.8887 296.073 80.9512 295.873 81.0261C294.487 81.5134 293.062 81.7757 291.663 81.8382C291.251 81.8507 290.839 81.8382 290.414 81.8382C288.902 81.7757 287.441 81.4634 286.041 80.9387C285.654 80.7888 285.267 80.6139 284.892 80.4515C283.555 79.8018 282.306 78.9523 281.232 77.9279C280.919 77.653 280.632 77.3407 280.357 77.0409C279.408 75.9914 278.608 74.7796 278.008 73.4304C277.921 73.243 277.846 73.0556 277.759 72.8557C277.671 72.6558 277.609 72.4684 277.534 72.2685C277.046 70.8818 276.772 69.4451 276.734 68.0334C276.722 67.6211 276.709 67.2088 276.734 66.7841C276.797 65.2974 277.109 63.8232 277.621 62.424C277.771 62.0367 277.946 61.6494 278.108 61.2747C278.758 59.9379 279.607 58.6886 280.644 57.6017C280.932 57.3019 281.232 57.002 281.531 56.7272C282.581 55.7902 283.78 55.0031 285.129 54.391C285.317 54.3035 285.504 54.2286 285.704 54.1411C285.904 54.0537 286.091 53.9912 286.291 53.9163C287.678 53.429 289.102 53.1667 290.501 53.1042C290.914 53.0917 291.326 53.1042 291.751 53.1042C293.262 53.1667 294.724 53.479 296.123 54.0037C296.511 54.1536 296.898 54.3285 297.273 54.4909C298.609 55.1406 299.859 55.9901 300.933 57.0145C301.245 57.2894 301.533 57.6017 301.808 57.9015C302.757 58.9509 303.557 60.1628 304.156 61.512C304.244 61.6994 304.319 61.8868 304.406 62.0867C304.494 62.2866 304.556 62.474 304.631 62.6739C305.118 64.0606 305.393 65.4973 305.431 66.909C305.443 67.3213 305.456 67.7336 305.431 68.1583Z" fill="#FFBB02"/>
</svg>
