<svg width="19" height="15" viewBox="0 0 19 15" fill="none" xmlns="http://www.w3.org/2000/svg">
<path id="Vector" d="M5.75283 14.953C12.5568 14.953 16.2776 9.31704 16.2776 4.42816C16.2776 4.26719 16.2735 4.10829 16.2673 3.94938C16.9896 3.42727 17.617 2.77514 18.1123 2.03428C17.4498 2.32939 16.7358 2.5275 15.9887 2.61624C16.7523 2.1581 17.3384 1.43375 17.6149 0.571124C16.9009 0.99418 16.1084 1.30373 15.2664 1.46883C14.5916 0.750666 13.6299 0.300781 12.5671 0.300781C10.5241 0.300781 8.86693 1.95792 8.86693 3.99891C8.86693 4.28989 8.89995 4.57055 8.96393 4.84296C5.88903 4.68819 3.1629 3.21677 1.34066 0.977671C1.02285 1.52455 0.839183 2.16017 0.839183 2.83706C0.839183 4.12067 1.49131 5.25364 2.48601 5.91608C1.87928 5.89751 1.3097 5.73035 0.810291 5.45381C0.810291 5.46826 0.810291 5.48477 0.810291 5.50128C0.810291 7.29256 2.08565 8.78874 3.77788 9.12718C3.46626 9.21179 3.1402 9.25719 2.80382 9.25719C2.56649 9.25719 2.3333 9.23449 2.10835 9.19116C2.57888 10.6605 3.94504 11.7295 5.56297 11.7605C4.29586 12.7531 2.7027 13.3433 0.969196 13.3433C0.669961 13.3433 0.376918 13.3268 0.0859375 13.2917C1.72244 14.3401 3.66644 14.953 5.75489 14.953" fill="#F7F0D4"/>
</svg>
