<svg width="8" height="8" viewBox="0 0 8 8" fill="none" xmlns="http://www.w3.org/2000/svg">
<path id="Vector" d="M5.90559 3.90993C6.84012 3.53982 7.28525 2.73585 7.40206 1.74498C7.27726 1.66793 7.15138 1.58654 7.02333 1.50081C6.69003 2.11187 5.9084 2.3936 5.28378 2.58817C5.68416 1.66637 5.40589 0.753733 4.81064 0C4.66848 0.0325556 4.52089 0.0651109 4.37005 0.0954962C4.58672 0.745508 4.2043 1.531 3.90993 2.09441C3.5362 1.16008 2.74026 0.714793 1.74498 0.597938C1.66793 0.722734 1.58654 0.848616 1.50081 0.976668C2.1132 1.29617 2.39706 2.10155 2.58926 2.71731C1.67213 2.3097 0.776785 2.5759 0 3.18937C0.0336408 3.33152 0.0661964 3.47911 0.0965816 3.62995C0.746163 3.41342 1.53134 3.79587 2.09441 4.09007C1.16095 4.46346 0.710209 5.29878 0.597938 6.25502C0.722735 6.33207 0.849702 6.41346 0.977754 6.49919C1.29742 5.88649 2.1 5.60379 2.71622 5.41183C2.31584 6.33363 2.59411 7.24627 3.18937 8C3.33261 7.96636 3.47911 7.93489 3.62995 7.9045C3.41328 7.25449 3.7957 6.46899 4.09007 5.90559C4.45982 6.83921 5.26547 7.28541 6.25502 7.40206C6.33207 7.27726 6.41346 7.1503 6.50027 7.02225C5.88739 6.70248 5.60495 5.8998 5.41183 5.28378C6.3332 5.68397 7.21834 5.42795 8 4.81064C7.96744 4.66739 7.93597 4.52089 7.9045 4.37005C7.25449 4.58672 6.46899 4.2043 5.90559 3.90993Z" fill="#FFBB02"/>
</svg>
