<svg width="469" height="170" viewBox="0 0 469 170" fill="none" xmlns="http://www.w3.org/2000/svg">
<path d="M389.46 113.303C389.46 94.3424 394.778 79.3125 405.646 68.4446C413.046 61.0453 421.601 57.3456 429.232 57.3456C436.862 57.3456 445.418 61.0453 452.817 68.4446C463.685 79.3125 469.003 94.3424 469.003 113.303C469.003 132.264 463.685 147.294 452.817 158.162C445.418 165.561 436.862 169.261 429.232 169.261C421.601 169.261 413.046 165.561 405.646 158.162C394.778 147.294 389.46 132.264 389.46 113.303ZM408.884 113.303C408.884 140.126 412.352 154.231 418.826 160.706C421.601 163.48 425.07 164.636 429.232 164.636C433.394 164.636 436.862 163.48 439.637 160.706C446.112 154.231 449.58 140.126 449.58 113.303C449.58 86.4806 446.112 72.3756 439.637 65.9011C436.862 63.1263 433.394 61.9702 429.232 61.9702C425.07 61.9702 421.601 63.1263 418.826 65.9011C412.352 72.3756 408.884 86.4806 408.884 113.303Z" fill="#F7F0D4"/>
<path d="M365.312 29.135C357.913 29.135 352.826 22.8918 352.826 14.5675C352.826 6.24322 357.913 0 365.312 0C372.711 0 377.799 6.24322 377.799 14.5675C377.799 22.8918 372.711 29.135 365.312 29.135ZM374.793 144.981C374.793 158.855 376.874 161.63 386.817 162.555L393.985 163.249V166.486H337.564V163.249L344.501 162.555C354.676 161.63 356.757 158.855 356.757 144.981V81.3931C356.757 67.5192 354.676 64.9757 344.501 64.0508L337.564 63.3571V60.1199H374.793V144.981Z" fill="#F7F0D4"/>
<path d="M337.497 162.555L343.047 163.249V166.486H307.9L310.906 129.258H309.75C305.819 157.005 294.257 169.261 280.615 169.261C263.735 169.261 247.78 147.294 247.78 113.303C247.78 79.312 263.966 57.3451 282.233 57.3451C296.57 57.3451 307.9 72.8376 309.75 98.0417H310.906L307.437 21.2732C306.744 7.39937 305.356 4.85583 294.257 3.93092L285.933 3.23722V0H325.473V144.981C325.473 158.855 327.323 161.168 337.497 162.555ZM285.933 163.017C297.957 163.017 307.437 143.825 307.437 115.153V108.678C307.437 81.1619 297.495 63.5883 286.395 63.5883C273.678 63.5883 267.203 80.2369 267.203 113.303C267.203 146.369 273.447 163.017 285.933 163.017Z" fill="#F7F0D4"/>
<path d="M246.313 162.556L252.325 163.25V166.487H216.484L219.49 131.571H218.334C216.021 157.469 206.772 169.262 190.817 169.262C173.937 169.262 163.532 157.238 163.532 131.571V81.6253C163.532 67.7514 161.451 65.2079 151.508 64.0518L145.265 63.3581V60.1208H181.568V139.895C181.568 155.157 186.193 163.018 196.598 163.018C207.003 163.018 216.021 147.063 216.021 121.166V81.6253C216.021 67.7514 213.709 65.4391 204.46 64.0518L200.066 63.3581V60.1208H234.057V145.214C234.057 159.087 236.138 161.4 246.313 162.556Z" fill="#F7F0D4"/>
<path d="M145.808 107.29H149.046V127.869C149.046 156.773 140.952 169.26 124.535 169.26C110.893 169.26 101.643 157.698 101.643 131.107V64.7436H80.3701V60.119H94.2439C103.262 60.119 107.193 54.8007 109.505 41.6206L116.442 2.3114H119.679V60.119H146.271V64.7436H119.679V137.581C119.679 155.386 123.841 160.473 131.472 160.473C138.64 160.473 144.19 153.074 144.883 134.113L145.808 107.29Z" fill="#F7F0D4"/>
<path d="M51.1294 75.6114C75.871 89.0228 88.8199 105.44 88.8199 126.251C88.8199 152.149 72.1714 168.797 51.8231 168.797C36.3307 168.797 24.5379 159.086 16.2136 142.437L6.96441 167.872H3.72719L0.721191 97.1158L3.49596 96.4221L12.2827 121.857C21.9944 150.068 34.0184 164.173 51.8231 164.173C65.0032 164.173 75.6398 153.074 75.6398 136.425C75.6398 119.545 67.0843 108.677 45.1174 96.4221L38.8742 92.9537C15.5199 80.0048 1.64611 62.8937 1.64611 42.083C1.64611 15.7228 16.2136 2.3114 35.637 2.3114C50.8982 2.3114 59.4537 11.3294 66.3906 26.1281L74.7149 3.23632H77.9521L81.1893 67.0559L78.1833 67.7496L68.9341 43.7016C59.2225 18.2663 51.5919 6.936 35.8682 6.936C24.0755 6.936 14.8262 16.1852 14.8262 32.8338C14.8262 49.2512 25.4628 61.7376 45.1174 72.3742L51.1294 75.6114Z" fill="#F7F0D4"/>
<path d="M79.7795 60.7112H162.945V64.8181H79.7795V60.7112Z" fill="#F7F0D4"/>
</svg>
