<svg width="624" height="168" viewBox="0 0 624 168" fill="none" xmlns="http://www.w3.org/2000/svg">
<path d="M132.655 160.302L144.048 161.697L144.048 164.928L74.5714 164.928L74.5714 161.697L85.964 160.302C97.3565 158.907 99.4903 156.365 99.4903 140.157L99.4904 83.8892L44.9327 83.8892L44.9327 140.157C44.9327 156.365 46.8134 158.907 58.206 160.302L69.5985 161.697L69.5985 164.928L0.0859272 164.928L0.0859274 161.697L11.4785 160.302C22.871 158.907 25.0048 156.365 25.0048 140.157L25.0049 27.6213C25.0049 11.4135 22.6359 8.87115 11.4785 7.47636L0.0859372 6.09924L0.0859374 2.86829L69.5623 2.86829L69.5623 6.1169L58.1698 7.51168C47.2655 8.8888 44.8966 11.4312 44.8966 27.6566L44.8966 79.2812L99.4542 79.2812L99.4542 27.6213C99.4542 11.4135 97.3204 8.87115 85.9278 7.47637L74.5353 6.08159L74.5353 2.85064L144.012 2.85064L144.012 6.09925L132.619 7.49403C121.245 8.87115 119.346 11.4135 119.346 27.6389L119.346 140.175C119.346 156.365 121.227 158.925 132.619 160.32L132.655 160.302ZM224.248 139.963C224.248 156.877 219.962 167.753 209.528 167.753C199.094 167.753 193.18 158.484 192.927 130.694L191.752 130.694C189.618 157.795 179.907 167.753 164.952 167.753C151.444 167.753 141.01 157.795 141.01 140.422C141.01 127.692 147.881 116.799 163.524 107.548L189.365 92.2579L189.365 86.2374C189.365 69.3235 182.258 60.9901 171.119 60.9901C163.035 60.9901 154.735 65.1568 150.467 72.3426C158.768 74.4259 164.229 81.135 164.229 88.7798C164.229 96.4246 158.768 101.509 153.325 101.509C147.14 101.509 142.655 95.7007 142.655 86.4493C142.655 70.2416 155.223 55.6581 177.737 55.6581C195.531 55.6581 207.611 67.2225 207.611 93.3879L207.611 142.7C207.611 156.612 209.528 160.549 213.072 160.549C216.87 160.549 218.768 155.906 219.257 142.947L220.432 115.387L224.23 115.387L224.23 115.422L224.248 139.963ZM189.365 95.9479L172.529 108.218C162.095 115.634 159.256 126.739 159.256 140.634C159.256 155.676 165.169 160.549 171.336 160.549C180.576 160.549 189.365 142.947 189.365 119.094L189.365 95.9479ZM358.354 56.5762L358.318 56.5762C352.839 56.5939 348.824 61.4315 348.824 66.9577C348.824 74.6025 353.833 80.6583 366.871 84.5778C366.871 115.122 341.699 160.744 318.715 160.744C311.138 160.744 305.677 155.482 305.677 141.57C305.677 121.619 317.269 91.3399 342.911 59.8072L340.09 57.4943C336.654 60.3192 332.947 62.7203 329.059 64.4682C329.059 64.4682 328.951 64.5212 328.914 64.5389C327.196 65.298 325.46 65.9513 323.67 66.428C312.675 68.5113 299.8 60.8135 293.814 57.6532C293.362 57.3884 292.892 57.1589 292.44 56.947C292.277 56.8764 292.133 56.7881 291.988 56.7351C291.898 56.6998 291.807 56.6469 291.717 56.6292C291.536 56.5586 291.373 56.488 291.229 56.435C290.975 56.3644 290.704 56.2761 290.487 56.2231C289.149 55.8347 287.757 55.6052 286.256 55.6052C270.577 55.6052 260.613 75.7501 257.991 99.4084L256.816 99.4084L259.908 58.3771L223.145 58.3771L223.145 61.6434L229.347 62.3496C239.763 63.4972 241.861 65.8277 241.861 79.7049L241.861 143.318C241.861 157.212 239.745 159.772 229.347 160.938L223.145 161.644L223.145 164.857L280.993 164.857L280.794 161.644L271.771 160.496C262.295 159.349 260.378 157.212 260.378 143.318L260.378 110.69C260.378 90.4571 267.033 72.0071 275.152 64.9449C277.503 67.9993 284.917 76.7564 296.22 79.7932C297.937 80.3935 299.836 80.7995 302.133 80.9761C302.73 81.0467 303.381 81.0467 304.104 81.0467C307.938 81.0467 311.717 80.2346 316.111 78.0276C321.464 75.6441 326.039 72.1307 329.348 69.1116L330.198 69.7119C304.303 100.256 288.697 125.927 288.426 144.006C288.172 158.854 299.565 167.611 313.598 167.611C345.623 167.611 372.17 118.335 372.17 84.5072C372.17 68.1053 366.437 56.5233 358.39 56.5233L358.354 56.5762ZM444.341 126.492L447.668 127.198C442.912 152.445 431.303 167.717 413.979 167.717C396.655 167.717 374.611 147.82 374.611 111.697C374.611 75.5735 393.816 55.4286 412.315 55.4286C433.183 55.4286 447.415 73.9492 447.415 108.448L446.475 109.384L394.521 109.384L394.521 111.697C394.521 147.82 402.586 163.092 416.583 163.092C428.699 163.074 439.368 151.28 444.341 126.492ZM394.521 104.511L427.957 104.511C427.722 72.0778 424.178 60.0544 412.315 60.0544C400.452 60.0544 395.244 73.4902 394.521 104.511ZM623.258 105.676L623.258 126.28C623.258 155.235 614.957 167.717 598.122 167.717C587.453 167.717 579.406 160.973 576.187 145.966C572.932 160.991 565.174 167.717 552.823 167.717C538.826 167.717 529.351 156.135 529.351 129.529L529.351 63.0558L507.108 63.0558L507.144 63.1617L507.524 64.6978L514.468 91.9755L514.468 92.0108L515.861 97.4487L514.757 97.943L512.985 98.7375L504.812 82.2296L504.576 81.7353L502.37 77.2331L501.593 75.6795C495.933 65.1745 489.965 60.0544 480.887 60.0544C471.809 60.0544 465.715 66.3044 465.715 76.4916C465.715 86.6788 471.629 93.8469 483.726 98.7199L496.294 103.805C513.6 110.761 522.135 122.572 522.135 136.926C522.135 155.447 508.392 167.029 492.497 167.029C479.929 167.029 470.67 159.614 465.462 148.491L460.236 166.34L456.927 166.34L454.793 118.618L457.867 117.929L461.9 130.2C469.024 151.51 477.072 162.845 492.497 162.845C503.871 162.845 511.466 155.2 511.466 145.012C511.466 134.825 505.3 127.887 493.437 122.802L481.592 117.699C463.328 109.843 455.028 98.2608 455.028 84.366C455.028 66.3044 464.757 55.8877 480.887 55.8877C489.187 55.8877 496.565 60.178 501.828 68.0347L502.37 58.4301L521.774 58.4301C531.032 58.4301 535.065 53.0981 537.434 39.9095L544.559 0.555454L547.868 0.555454L547.868 58.4301L567.073 58.4301C576.331 58.4301 580.364 53.0981 582.733 39.9095L589.84 0.555457L593.167 0.555457L593.167 58.4301L620.437 58.4301L620.437 63.0558L593.167 63.0558L593.167 136.008C593.167 153.84 597.435 158.925 605.265 158.925C612.625 158.925 618.303 151.51 619.026 132.53L619.967 105.676L623.276 105.676L623.258 105.676ZM574.65 63.0558L547.832 63.0558L547.832 136.008C547.832 153.84 552.1 158.925 559.93 158.925C567.29 158.925 572.968 151.51 573.691 132.53L574.65 105.676L574.65 63.0558Z" fill="#F7F0D4"/>
</svg>
