<svg width="8" height="9" viewBox="0 0 8 9" fill="none" xmlns="http://www.w3.org/2000/svg">
<path id="Vector" d="M5.90559 4.12087C6.84012 3.75075 7.28525 2.94679 7.40206 1.95592C7.27726 1.87887 7.15138 1.79748 7.02333 1.71175C6.69003 2.32281 5.9084 2.60453 5.28378 2.79911C5.68416 1.87731 5.40589 0.96467 4.81064 0.210938C4.66848 0.243493 4.52089 0.276048 4.37005 0.306434C4.58672 0.956445 4.2043 1.74194 3.90993 2.30535C3.5362 1.37101 2.74026 0.92573 1.74498 0.808875C1.66793 0.933672 1.58654 1.05955 1.50081 1.18761C2.1132 1.50711 2.39706 2.31249 2.58926 2.92825C1.67213 2.52063 0.776785 2.78684 0 3.4003C0.0336408 3.54246 0.0661964 3.69005 0.0965816 3.84089C0.746163 3.62436 1.53134 4.00681 2.09441 4.30101C1.16095 4.67439 0.710209 5.50972 0.597938 6.46596C0.722735 6.543 0.849702 6.62439 0.977754 6.71012C1.29742 6.09743 2.1 5.81472 2.71622 5.62277C2.31584 6.54457 2.59411 7.4572 3.18937 8.21094C3.33261 8.1773 3.47911 8.14583 3.62995 8.11544C3.41328 7.46543 3.7957 6.67993 4.09007 6.11653C4.45982 7.05015 5.26547 7.49634 6.25502 7.613C6.33207 7.4882 6.41346 7.36124 6.50027 7.23318C5.88739 6.91342 5.60495 6.11074 5.41183 5.49471C6.3332 5.8949 7.21834 5.63889 8 5.02157C7.96744 4.87833 7.93597 4.73183 7.9045 4.58099C7.25449 4.79766 6.46899 4.41524 5.90559 4.12087Z" fill="#FFBB02"/>
</svg>
