<svg width="54" height="90" viewBox="0 0 54 90" fill="none" xmlns="http://www.w3.org/2000/svg">
<g id="Group 2014">
<g id="Group 2001">
<rect id="Rectangle 7110" x="28" width="30" height="2" transform="rotate(90 28 0)" fill="#FFBB02"/>
<rect id="Rectangle 7112" x="28" y="60" width="30" height="2" transform="rotate(90 28 60)" fill="#FFBB02"/>
<g id="Group 2002">
<rect id="Rectangle 7110_2" x="54" y="46.0001" width="12" height="2" transform="rotate(-180 54 46.0001)" fill="#FFBB02"/>
<rect id="Rectangle 7112_2" x="12" y="46.0001" width="12" height="2" transform="rotate(-180 12 46.0001)" fill="#FFBB02"/>
</g>
</g>
<path id="Vector" d="M29.382 44.8874C30.5502 44.4248 31.1066 43.4198 31.2526 42.1812C31.0966 42.0849 30.9392 41.9832 30.7792 41.876C30.3625 42.6398 29.3855 42.992 28.6047 43.2352C29.1052 42.083 28.7574 40.9422 28.0133 40C27.8356 40.0407 27.6511 40.0814 27.4626 40.1194C27.7334 40.9319 27.2554 41.9138 26.8874 42.618C26.4202 41.4501 25.4253 40.8935 24.1812 40.7474C24.0849 40.9034 23.9832 41.0608 23.876 41.2208C24.6415 41.6202 24.9963 42.6269 25.2366 43.3966C24.0902 42.8871 22.971 43.2199 22 43.9867C22.0421 44.1644 22.0827 44.3489 22.1207 44.5374C22.9327 44.2668 23.9142 44.7448 24.618 45.1126C23.4512 45.5793 22.8878 46.6235 22.7474 47.8188C22.9034 47.9151 23.0621 48.0168 23.2222 48.124C23.6218 47.3581 24.625 47.0047 25.3953 46.7648C24.8948 47.917 25.2426 49.0578 25.9867 50C26.1658 49.9579 26.3489 49.9186 26.5374 49.8806C26.2666 49.0681 26.7446 48.0862 27.1126 47.382C27.5748 48.549 28.5818 49.1068 29.8188 49.2526C29.9151 49.0966 30.0168 48.9379 30.1253 48.7778C29.3592 48.3781 29.0062 47.3748 28.7648 46.6047C29.9165 47.105 31.0229 46.7849 32 46.0133C31.9593 45.8342 31.92 45.6511 31.8806 45.4626C31.0681 45.7334 30.0862 45.2554 29.382 44.8874Z" fill="#FFBB02"/>
</g>
</svg>
