<svg width="124" height="125" viewBox="0 0 124 125" fill="none" xmlns="http://www.w3.org/2000/svg">
<g id="Group 1952">
<path id="Vector" d="M75.6342 61.8516C82.2714 59.223 85.4327 53.5132 86.2623 46.476C85.376 45.9288 84.482 45.3507 83.5725 44.7419C81.2054 49.0817 75.6542 51.0825 71.2181 52.4644C74.0616 45.9177 72.0854 39.4361 67.8578 34.083C66.8482 34.3142 65.8 34.5454 64.7287 34.7612C66.2676 39.3777 63.5516 44.9563 61.4609 48.9576C58.8067 42.3219 53.1539 39.1595 46.0853 38.3296C45.5381 39.2159 44.9601 40.1099 44.3513 41.0194C48.7005 43.2885 50.7165 49.0084 52.0814 53.3815C45.5679 50.4866 39.2092 52.3772 33.6924 56.7341C33.9313 57.7437 34.1625 58.7919 34.3783 59.8631C38.9917 58.3254 44.568 61.0415 48.567 63.1309C41.9375 65.7828 38.7363 71.7153 37.939 78.5065C38.8253 79.0537 39.727 79.6318 40.6365 80.2406C42.9068 75.8892 48.6067 73.8815 52.9832 72.5182C50.1397 79.0649 52.1159 85.5465 56.3435 90.8995C57.3608 90.6606 58.4012 90.4371 59.4725 90.2213C57.9337 85.6049 60.6497 80.0262 62.7403 76.0249C65.3663 82.6555 71.0881 85.8244 78.1159 86.6529C78.6631 85.7666 79.2412 84.8649 79.8577 83.9554C75.505 81.6845 73.4991 75.9838 72.1275 71.6087C78.6712 74.4509 84.9575 72.6326 90.5089 68.2484C90.2777 67.2311 90.0542 66.1907 89.8307 65.1194C85.2142 66.6582 79.6356 63.9422 75.6342 61.8516Z" fill="#FFBB02"/>
<path id="Vector_2" d="M117.855 47.2562C118.742 45.3218 119.204 43.0944 119.204 40.7284C119.204 28.2737 105.316 17.3605 90.7575 12.297C90.0176 10.3009 88.769 8.39721 87.0966 6.72478C78.2874 -2.0844 60.7461 0.0196272 46.8657 6.74019C44.9312 5.85388 42.7039 5.39145 40.3378 5.39145C27.8755 5.39145 16.9623 19.2873 11.9064 33.8537C9.91031 34.5935 8.01437 35.8344 6.34194 37.5068C-2.46724 46.3083 -0.363207 63.8496 6.34194 77.7223C5.45563 79.6645 4.9932 81.8918 4.9932 84.2579C4.9932 96.7202 18.889 107.633 33.4554 112.689C34.1876 114.685 35.4361 116.589 37.1086 118.261C45.9177 127.063 63.4513 124.959 77.324 118.246C79.2662 119.132 81.4936 119.595 83.8596 119.595C96.322 119.595 107.235 105.699 112.291 91.1326C114.287 90.4004 116.191 89.1519 117.863 87.4794C126.672 78.6702 124.568 61.129 117.848 47.2562H117.855ZM117.2 82.9246C116.299 83.8263 115.281 84.4506 114.141 84.728C114.896 81.36 115.304 78.0537 115.304 74.9863C115.304 66.1848 112.229 59.9652 107.906 59.9652L107.89 59.996H107.867C104.931 59.996 102.773 62.601 102.773 65.5682C102.773 69.6684 105.463 72.9208 112.461 75.0248C112.461 78.0306 112.006 81.3061 111.189 84.6586C110.603 87.0632 109.825 89.5064 108.9 91.9033C104.068 104.412 95.0657 115.903 86.6111 115.903C85.3394 115.903 84.1679 115.626 83.1737 115.009C86.0947 113.159 88.7228 111.109 90.8885 108.944C97.1158 102.724 99.3354 96.1499 96.2834 93.0902L96.2449 93.1056L96.2295 93.0825C94.1486 91.017 90.7883 91.3253 88.692 93.4216C85.7941 96.3194 85.3933 100.527 88.8538 106.963C86.7267 109.09 84.0831 111.086 81.1313 112.874C79.0196 114.161 76.7537 115.34 74.3953 116.381C62.1334 121.807 47.6441 123.564 41.6711 117.591C40.7694 116.689 40.1451 115.672 39.8754 114.531C43.2434 115.287 46.542 115.695 49.6094 115.695C58.4109 115.695 64.6305 112.62 64.6305 108.296L64.5997 108.281V108.258C64.592 105.321 61.9947 103.163 59.0275 103.163C54.9273 103.163 51.6749 105.853 49.5709 112.851C46.5651 112.851 43.2896 112.396 39.9448 111.579C37.5401 110.994 35.097 110.215 32.6924 109.29C20.1838 104.458 8.6926 95.4562 8.6926 87.0016C8.6926 85.7299 8.97005 84.5584 9.58662 83.5642C11.4363 86.4852 13.4864 89.1133 15.6521 91.279C21.8794 97.4986 28.4458 99.726 31.5055 96.6663V96.6354V96.62C33.571 94.5391 33.2627 91.1711 31.1664 89.0748C28.2685 86.1769 24.0605 85.7762 17.6251 89.2366C15.4979 87.1095 13.5018 84.4737 11.7138 81.5219C10.4267 79.4101 9.24751 77.1365 8.21476 74.7782C2.78128 62.5162 1.02406 48.027 7.00475 42.054C7.90648 41.1522 8.92381 40.528 10.0567 40.2582C9.30145 43.6262 8.89298 46.9325 8.89298 50C8.89298 58.8014 11.9681 65.021 16.2918 65.021L16.3072 64.9902H16.3303C19.2667 64.9825 21.4247 62.3852 21.4247 59.418C21.4247 55.3178 18.7349 52.0655 11.7369 49.9614C11.7369 46.9557 12.1916 43.6802 13.0086 40.3276C13.5943 37.923 14.3727 35.4798 15.2976 33.0829C20.1299 20.5744 29.1317 9.08314 37.5864 9.08314C38.8581 9.08314 40.0295 9.36059 41.0237 9.96945C38.1028 11.8191 35.4747 13.8692 33.309 16.0349C27.0894 22.2622 24.862 28.8364 27.9217 31.8884H27.9526L27.9757 31.8961C30.0566 33.9693 33.4169 33.6533 35.5132 31.5569C38.411 28.6591 38.8118 24.4587 35.3513 18.0233C37.4785 15.8962 40.1143 13.9001 43.0661 12.112C45.1779 10.8249 47.4514 9.64576 49.8098 8.6053C62.0717 3.17953 76.561 1.42231 82.534 7.39529C83.4357 8.29702 84.06 9.31435 84.3298 10.455C80.9618 9.69971 77.6554 9.29123 74.588 9.29123C65.7866 9.29123 59.5669 12.3664 59.5669 16.69L59.5978 16.7054V16.7285C59.5978 19.6649 62.2028 21.8229 65.17 21.8229C69.2701 21.8229 72.5225 19.1332 74.6266 12.1351C77.6323 12.1351 80.9078 12.5899 84.2604 13.4068C86.665 13.9925 89.1081 14.771 91.5127 15.7035C104.021 20.5358 115.505 29.5377 115.505 37.9846C115.505 39.2563 115.227 40.4278 114.619 41.422C112.769 38.501 110.719 35.8729 108.553 33.7072C102.326 27.4799 95.7593 25.2603 92.6996 28.3123V28.3508V28.3662C90.6264 30.4471 90.9424 33.8074 93.0387 35.9037C95.9366 38.8093 100.137 39.2024 106.572 35.7419C108.7 37.869 110.696 40.5126 112.484 43.4644C113.771 45.5761 114.95 47.842 115.99 50.2003C121.416 62.4623 123.173 76.9516 117.2 82.9246Z" fill="#FFBB02"/>
</g>
</svg>
