<svg width="138" height="11" viewBox="0 0 138 11" fill="none" xmlns="http://www.w3.org/2000/svg">
<g id="Group 2096">
<rect id="Rectangle 7110" y="4.45703" width="54" height="2" fill="#FFBB02"/>
<rect id="Rectangle 7112" x="84" y="4.45703" width="54" height="2" fill="#FFBB02"/>
<path id="Vector" d="M71.382 5.34444C72.5502 4.8818 73.1066 3.87685 73.2526 2.63826C73.0966 2.54195 72.9392 2.44021 72.7792 2.33305C72.3625 3.09687 71.3855 3.44903 70.6047 3.69225C71.1052 2.53999 70.7574 1.3992 70.0133 0.457031C69.8356 0.497726 69.6511 0.53842 69.4626 0.576401C69.7334 1.38892 69.2554 2.37079 68.8874 3.07505C68.4202 1.90713 67.4253 1.35052 66.1812 1.20445C66.0849 1.36045 65.9832 1.5178 65.876 1.67787C66.6415 2.07725 66.9963 3.08397 67.2366 3.85367C66.0902 3.34415 64.971 3.67691 64 4.44374C64.0421 4.62144 64.0827 4.80592 64.1207 4.99447C64.9327 4.72381 65.9142 5.20187 66.618 5.56962C65.4512 6.03635 64.8878 7.08051 64.7474 8.2758C64.9034 8.37212 65.0621 8.47385 65.2222 8.58101C65.6218 7.81514 66.625 7.46176 67.3953 7.22182C66.8948 8.37407 67.2426 9.51486 67.9867 10.457C68.1658 10.415 68.3489 10.3756 68.5374 10.3377C68.2666 9.52515 68.7446 8.54327 69.1126 7.83902C69.5748 9.00604 70.5818 9.56379 71.8188 9.70961C71.9151 9.55361 72.0168 9.3949 72.1253 9.23484C71.3592 8.83513 71.0062 7.83179 70.7648 7.06175C71.9165 7.56199 73.0229 7.24197 74 6.47032C73.9593 6.29127 73.92 6.10814 73.8806 5.91959C73.0681 6.19043 72.0862 5.71241 71.382 5.34444Z" fill="#FFBB02"/>
</g>
</svg>
